<svg width="78" height="21" viewBox="0 0 78 21" fill="none" xmlns="http://www.w3.org/2000/svg">
<path d="M8.558 16.264C11.792 16.264 13.64 14.482 14.696 12.656L12.012 11.358C11.396 12.568 10.076 13.492 8.558 13.492C5.896 13.492 3.96 11.446 3.96 8.674C3.96 5.902 5.896 3.856 8.558 3.856C10.076 3.856 11.396 4.802 12.012 5.99L14.696 4.67C13.662 2.844 11.792 1.084 8.558 1.084C4.158 1.084 0.748 4.164 0.748 8.674C0.748 13.184 4.158 16.264 8.558 16.264ZM19.2835 16V1.326H16.4895V16H19.2835ZM26.982 16.264C30.502 16.264 32.614 13.712 32.614 10.676C32.614 7.662 30.502 5.11 26.982 5.11C23.484 5.11 21.372 7.662 21.372 10.676C21.372 13.712 23.484 16.264 26.982 16.264ZM26.982 13.778C25.244 13.778 24.276 12.348 24.276 10.676C24.276 9.026 25.244 7.596 26.982 7.596C28.72 7.596 29.71 9.026 29.71 10.676C29.71 12.348 28.72 13.778 26.982 13.778ZM38.2508 16.264C39.4168 16.264 40.1648 15.956 40.5828 15.582L39.9888 13.47C39.8348 13.624 39.4388 13.778 39.0208 13.778C38.4048 13.778 38.0528 13.272 38.0528 12.612V7.816H40.2088V5.374H38.0528V2.47H35.2368V5.374H33.4768V7.816H35.2368V13.36C35.2368 15.252 36.2928 16.264 38.2508 16.264ZM52.1084 16V8.454C52.1084 6.386 50.9864 5.11 48.6544 5.11C46.9164 5.11 45.5964 5.946 44.9144 6.76V1.326H42.1204V16H44.9144V8.85C45.3984 8.212 46.2564 7.596 47.3344 7.596C48.5444 7.596 49.3144 8.058 49.3144 9.532V16H52.1084ZM56.2681 4.23C57.1921 4.23 57.9401 3.482 57.9401 2.558C57.9401 1.634 57.1921 0.907999 56.2681 0.907999C55.3661 0.907999 54.5961 1.634 54.5961 2.558C54.5961 3.482 55.3661 4.23 56.2681 4.23ZM57.6761 16V5.374H54.8821V16H57.6761ZM63.8785 16V7.816H66.0345V5.374H63.8785V4.802C63.8785 3.812 64.4285 3.306 65.1985 3.306C65.7045 3.306 66.0785 3.46 66.3645 3.746L67.4205 2.096C66.7385 1.37 65.6605 1.106 64.6485 1.106C62.5145 1.106 61.0625 2.536 61.0625 4.802V5.374H59.3025V7.816H61.0625V16H63.8785ZM67.2698 20.158C67.6218 20.246 68.3258 20.312 68.6558 20.312C70.4818 20.268 71.8898 19.74 72.6818 17.738L77.6758 5.374H74.6618L71.8898 12.766L69.1178 5.374H66.1258L70.4378 16.154L70.0418 17.056C69.7778 17.628 69.2938 17.826 68.5678 17.826C68.3038 17.826 67.9298 17.76 67.6878 17.65L67.2698 20.158Z" fill="url(#paint0_linear)"/>
<defs>
<linearGradient id="paint0_linear" x1="41.5" y1="23" x2="41.5" y2="-4" gradientUnits="userSpaceOnUse">
<stop stop-color="#B71AB7"/>
<stop offset="1" stop-color="#DA0B9F"/>
<stop offset="1" stop-color="#DA0B9F"/>
</linearGradient>
</defs>
</svg>
