<svg width="903" height="749" viewBox="0 0 903 749" fill="none" xmlns="http://www.w3.org/2000/svg">
<g clip-path="url(#clip0)">
<path d="M644.551 169.558H638.137C636.872 169.558 635.847 170.583 635.847 171.848V257.872C635.847 259.137 636.872 260.162 638.137 260.162H644.551C645.816 260.162 646.841 259.137 646.841 257.872V171.848C646.841 170.583 645.816 169.558 644.551 169.558Z" fill="#4A4A4A"/>
<path d="M602.788 0H312.99C291.456 0 274 17.4564 274 38.99V708.465C274 729.999 291.456 747.455 312.99 747.455H602.788C624.322 747.455 641.778 729.999 641.778 708.465V38.99C641.778 17.4564 624.322 0 602.788 0Z" fill="#4A4A4A"/>
<path d="M590.589 19.469H548.401V24.544C548.401 27.703 547.779 30.831 546.569 33.7494C545.36 36.6678 543.587 39.3192 541.353 41.5524C539.119 43.7855 536.466 45.5565 533.547 46.7643C530.628 47.972 527.5 48.5927 524.341 48.591H390.172C387.013 48.5927 383.885 47.972 380.966 46.7643C378.047 45.5565 375.394 43.7855 373.16 41.5524C370.925 39.3192 369.153 36.6678 367.944 33.7494C366.734 30.831 366.112 27.703 366.112 24.544V19.469H326.612C318.865 19.469 311.436 22.5464 305.958 28.0241C300.48 33.5019 297.403 40.9313 297.403 48.678V698.828C297.403 706.575 300.48 714.004 305.958 719.482C311.436 724.96 318.865 728.037 326.612 728.037H590.589C598.336 728.037 605.765 724.96 611.243 719.482C616.721 714.004 619.798 706.575 619.798 698.828V48.728C619.805 44.888 619.054 41.0844 617.589 37.5348C616.124 33.9853 613.974 30.7594 611.261 28.0418C608.548 25.3242 605.325 23.1682 601.778 21.6972C598.231 20.2262 594.429 19.469 590.589 19.469Z" fill="white"/>
<path d="M469.901 22.322H426.284C424.147 22.322 422.414 24.0546 422.414 26.192V28.875C422.414 31.0123 424.147 32.745 426.284 32.745H469.901C472.038 32.745 473.771 31.0123 473.771 28.875V26.192C473.771 24.0546 472.038 22.322 469.901 22.322Z" fill="#E6E8EC"/>
<path d="M487.458 33.453C490.727 33.453 493.377 30.803 493.377 27.534C493.377 24.265 490.727 21.615 487.458 21.615C484.189 21.615 481.539 24.265 481.539 27.534C481.539 30.803 484.189 33.453 487.458 33.453Z" fill="#E6E8EC"/>
<path d="M460.135 452.477C498.559 452.477 529.708 421.328 529.708 382.904C529.708 344.48 498.559 313.331 460.135 313.331C421.711 313.331 390.562 344.48 390.562 382.904C390.562 421.328 421.711 452.477 460.135 452.477Z" fill="white"/>
<path d="M285.763 147.357H284.8C283.535 147.357 282.51 148.382 282.51 149.647V171.88C282.51 173.145 283.535 174.17 284.8 174.17H285.763C287.028 174.17 288.053 173.145 288.053 171.88V149.647C288.053 148.382 287.028 147.357 285.763 147.357Z" fill="#3F3D56"/>
<path d="M286.265 196.454H284.599C283.334 196.454 282.309 197.479 282.309 198.744V240.83C282.309 242.095 283.334 243.12 284.599 243.12H286.265C287.53 243.12 288.555 242.095 288.555 240.83V198.744C288.555 197.479 287.53 196.454 286.265 196.454Z" fill="#3F3D56"/>
<path d="M286.064 259.449H284.699C283.434 259.449 282.409 260.474 282.409 261.739V304.226C282.409 305.491 283.434 306.516 284.699 306.516H286.064C287.329 306.516 288.354 305.491 288.354 304.226V261.739C288.354 260.474 287.329 259.449 286.064 259.449Z" fill="#3F3D56"/>
<path d="M208.741 383.91C208.9 384.063 209.104 384.161 209.323 384.19C209.542 384.218 209.765 384.174 209.957 384.066C209.546 384.072 209.137 384.02 208.741 383.91Z" fill="url(#paint0_linear)"/>
<path d="M254.704 401.889L253.504 408.425L252.578 413.425L250.894 422.571L234.565 434.003C234.565 434.003 233.093 432.743 230.665 430.757C223.973 425.247 209.908 414.027 199.58 408.004C196.923 406.311 194.049 404.986 191.036 404.067L254.704 401.889Z" fill="#FEB9B9"/>
<path d="M242.725 406.752C242.725 406.752 261.764 410.02 262.879 401.889C263.994 393.758 253.079 389.364 243.829 388.817C234.579 388.27 179.061 392.085 179.061 392.085C179.061 392.085 169.268 405.146 204.636 407.332L242.725 406.752Z" fill="#3F3D56"/>
<path d="M284.361 138.445H184.761V256.549H284.361V138.445Z" fill="#2F2E41"/>
<path opacity="0.1" d="M284.361 138.981H184.761V257.085H284.361V138.981Z" fill="black"/>
<path d="M68.03 340.623C66.39 341.036 64.294 342.623 61.963 344.917C51.925 354.855 37.548 378.177 37.548 378.177C19.167 356.282 39.507 338.983 48.177 333.038C50.285 331.599 51.701 330.807 51.701 330.807L68.03 340.623Z" fill="#FEB9B9"/>
<path d="M253.611 175.72C253.611 175.72 258.511 210.006 275.382 218.17C292.253 226.334 253.611 241.592 253.611 241.592L200.822 221.984C200.822 221.984 230.758 212.184 224.768 183.337L253.611 175.72Z" fill="#FEB9B9"/>
<path d="M197.008 381.991L195.814 388.505L194.844 393.524L193.16 402.67L176.831 414.091C176.831 414.091 175.359 412.842 172.931 410.857C166.239 405.347 152.175 394.127 141.831 388.104C139.176 386.409 136.301 385.084 133.287 384.167L197.008 381.991Z" fill="#FEB9B9"/>
<path d="M182.883 390.024C182.883 390.024 199.97 390.145 200.998 381.991C202.026 373.837 191.686 369.466 182.883 368.919C174.08 368.372 120.594 372.441 120.594 372.441C120.594 372.441 113.006 387.841 146.649 390.023L182.883 390.024Z" fill="#2F2E41"/>
<path d="M302.686 518.119C301.939 517.751 301.191 517.372 300.455 517.004L298.447 514.472L272.114 481.079V481.659C271.936 487.236 270.04 531.426 255.25 535.508C239.468 539.858 220.429 540.951 211.75 511.562C203.071 482.173 187.213 417.951 170.928 414.137L195.153 394.273C195.153 394.273 211.192 413.033 217.727 430.99C217.482 429.875 206.406 378.123 215.496 368.966H294.971C294.971 368.966 307.24 403.91 315.649 421.22C322.196 434.66 332.022 466.436 338.349 487.94C344.612 509.174 322.606 527.923 302.686 518.119Z" fill="#3F3D56"/>
<path opacity="0.1" d="M300.422 378.723C288.153 385.984 234.293 383.028 216.771 381.846L211.997 381.5C211.484 381.5 212.075 381.21 212.075 381.21L212.566 376.269L225.627 343.076L295.559 302.522C294.142 306.794 293.674 313.33 293.786 320.814C294.109 344.861 300.422 378.723 300.422 378.723Z" fill="black"/>
<path d="M300.422 377.084C288.153 384.345 234.293 381.389 216.771 380.207L211.997 379.872L211.205 379.805L212.075 379.582L216.38 378.467L225.626 341.46L295.558 300.917C294.142 305.189 293.673 311.725 293.785 319.209C294.109 343.233 300.422 377.084 300.422 377.084Z" fill="#EFEFEF"/>
<path opacity="0.1" d="M293.741 319.186C279.52 322.465 248.224 332.086 236.2 355.323C228.181 370.793 221.433 377.429 216.726 380.206L211.952 379.871C211.983 379.776 212.009 379.679 212.03 379.581L216.335 378.466L225.581 341.459L295.513 300.917C294.113 305.166 293.629 311.702 293.741 319.186Z" fill="black"/>
<path opacity="0.1" d="M51.701 330.831L68.03 340.624C66.39 341.037 64.294 342.624 61.963 344.918C60.602 340.947 52.063 335.404 48.177 333.04C50.284 331.623 51.701 330.831 51.701 330.831Z" fill="black"/>
<path opacity="0.1" d="M209.042 380.508C208.863 380.601 208.659 380.636 208.46 380.608C208.26 380.58 208.074 380.491 207.927 380.352C208.289 380.458 208.665 380.511 209.042 380.508Z" fill="black"/>
<path d="M245.994 215.995C245.994 215.995 231.294 217.623 220.955 206.738C220.955 206.738 177.455 219.263 162.723 247.559C147.991 275.855 47.842 331.377 47.842 331.377C47.842 331.377 65.264 341.17 63.624 346.066L129.485 307.966C129.485 307.966 152.907 291.102 159.41 287.288C165.913 283.474 201.871 260.074 209.489 323.749C217.107 387.424 209.489 379.806 209.489 379.806C209.489 379.806 220.375 383.621 236.157 353.138C251.939 322.655 300.914 315.584 300.914 315.584L303.635 283.484C303.635 283.484 313.35 262.203 305.866 253.37C303.599 250.755 302.091 247.569 301.505 244.157C300.267 236.004 301.505 222.419 318.837 211.132C345.505 193.71 355.844 179.568 355.844 179.568C355.844 179.568 356.39 169.218 340.062 164.321C323.734 159.424 257.337 132.757 257.337 132.757L255.106 142.014L307.494 178.988C307.494 178.988 281.373 200.179 260.65 199.666C260.649 199.666 264.497 215.448 245.994 215.995Z" fill="#E500A4"/>
<path opacity="0.1" d="M256.076 190.643C254.789 186.28 253.783 181.84 253.065 177.348L224.222 184.968C225.494 190.474 225.266 196.22 223.564 201.609C229.461 203.183 235.691 202.981 241.474 201.031C247.258 199.08 252.337 195.467 256.076 190.643Z" fill="black"/>
<path d="M232.119 201.028C249.25 201.028 263.137 187.141 263.137 170.01C263.137 152.879 249.25 138.992 232.119 138.992C214.988 138.992 201.101 152.879 201.101 170.01C201.101 187.141 214.988 201.028 232.119 201.028Z" fill="#FEB9B9"/>
<path opacity="0.1" d="M265.858 419.812C265.858 419.812 283.815 455.191 278.372 466.065L265.858 419.812Z" fill="black"/>
<path d="M248.614 98.371C257.224 99.353 265.4 103.044 273.877 105.063C275.996 105.722 278.251 105.806 280.413 105.308C283.703 104.293 286.38 100.847 289.793 100.947C291.893 101.014 293.752 102.442 295.481 103.813C298.253 105.935 300.863 108.261 303.288 110.773C309.132 117.119 312.757 125.663 318.088 132.567C323.419 139.471 331.022 147.567 338.595 144.401C333.443 164.477 317.374 177.036 299.117 178.286C291.834 178.786 284.372 177.271 277.323 179.401C275.567 180.121 273.713 180.572 271.823 180.739C267.763 180.739 264.495 177.014 261.963 173.389C256.029 164.868 251.334 155.198 244.653 147.424C242.422 144.848 239.846 142.405 236.723 141.937C233.6 141.469 230.734 142.963 227.957 144.402C223.373 146.778 218.689 149.231 215.131 153.325C211.573 157.419 209.331 163.463 210.803 168.94C211.595 171.907 213.403 174.584 213.435 177.684C213.502 182.636 209.13 186.25 208.271 191.068C208.077 193.092 208.006 195.126 208.059 197.158C207.68 203.758 203.359 209.158 198.859 213.319C197.097 214.925 195.159 216.665 194.643 219.152C194.297 220.858 194.643 222.652 194.42 224.383C193.762 228.666 189.49 230.841 185.709 231.399C181.291 232.053 176.779 231.518 172.637 229.849C177.924 227.349 181.181 220.235 179.954 213.866C178.27 205.032 169.392 198.686 170.154 189.697C170.571 186.939 171.399 184.259 172.608 181.745C174.543 176.887 175.949 171.836 176.802 166.677C177.471 162.695 177.795 158.468 176.545 154.665C175.43 151.207 173.099 148.453 171.124 145.53C168.448 141.554 166.335 137.226 164.845 132.67C164.305 131.319 164.099 129.857 164.245 128.409C164.692 126.699 165.645 125.163 166.978 124.003C171.83 118.903 177.016 113.608 183.519 112.147C186.622 111.632 189.777 111.512 192.91 111.79C198.359 111.961 203.812 111.73 209.227 111.098C213.688 110.574 221.227 110.641 225.009 107.752C228.533 105.052 230.519 101.662 234.857 99.945C239.25 98.3166 243.973 97.7768 248.62 98.372L248.614 98.371Z" fill="#2F2E41"/>
<path d="M824.962 745.598C849.812 745.598 869.957 742.191 869.957 737.989C869.957 733.787 849.812 730.38 824.962 730.38C800.112 730.38 779.967 733.787 779.967 737.989C779.967 742.191 800.112 745.598 824.962 745.598Z" fill="#E500A4"/>
<path d="M843.571 725.546C845.622 723.869 847.116 721.61 847.857 719.067C848.416 716.505 847.32 713.467 844.857 712.476C842.104 711.424 839.157 713.338 836.934 715.262C834.711 717.186 832.145 719.391 829.224 718.977C830.728 717.618 831.854 715.892 832.492 713.969C833.13 712.045 833.258 709.988 832.865 708C832.734 707.176 832.382 706.402 831.847 705.762C830.325 704.128 827.547 704.822 825.726 706.12C819.907 710.204 818.285 718.12 818.251 725.22C817.658 722.658 818.161 719.983 818.139 717.387C818.117 714.791 817.412 711.787 815.185 710.416C813.811 709.679 812.267 709.316 810.709 709.364C808.091 709.264 805.181 709.532 803.391 711.445C801.153 713.817 801.757 717.801 803.682 720.397C805.607 722.993 808.55 724.66 811.258 726.462C813.423 727.754 815.268 729.518 816.658 731.621C816.825 731.915 816.959 732.227 817.058 732.55H833.407C837.093 730.684 840.511 728.33 843.568 725.55L843.571 725.546Z" fill="#E500A4"/>
<path d="M213.212 748.956C229.612 748.956 242.906 746.708 242.906 743.934C242.906 741.16 229.612 738.912 213.212 738.912C196.812 738.912 183.518 741.16 183.518 743.934C183.518 746.708 196.812 748.956 213.212 748.956Z" fill="#EFEFEF"/>
<path d="M225.493 735.722C226.846 734.615 227.832 733.124 228.321 731.446C228.536 730.604 228.457 729.714 228.098 728.922C227.738 728.131 227.118 727.487 226.342 727.096C224.525 726.402 222.583 727.665 221.114 728.935C219.645 730.205 217.953 731.66 216.026 731.387C217.018 730.49 217.76 729.351 218.181 728.081C218.602 726.812 218.686 725.455 218.426 724.143C218.339 723.599 218.107 723.089 217.754 722.666C216.754 721.588 214.918 722.046 213.715 722.902C209.875 725.602 208.804 730.818 208.782 735.508C208.391 733.817 208.723 732.052 208.708 730.339C208.693 728.626 208.228 726.647 206.758 725.739C205.851 725.252 204.832 725.013 203.804 725.045C202.076 724.979 200.156 725.156 198.974 726.419C197.497 727.985 197.896 730.614 199.166 732.327C200.436 734.04 202.378 735.141 204.166 736.327C205.595 737.178 206.814 738.34 207.733 739.727C207.844 739.921 207.933 740.127 207.999 740.34H218.788C221.221 739.108 223.476 737.552 225.493 735.717V735.722Z" fill="#EFEFEF"/>
<path d="M45.28 748.956C61.6795 748.956 74.974 746.708 74.974 743.934C74.974 741.16 61.6795 738.912 45.28 738.912C28.8805 738.912 15.586 741.16 15.586 743.934C15.586 746.708 28.8805 748.956 45.28 748.956Z" fill="#EFEFEF"/>
<path d="M57.561 735.722C58.9142 734.615 59.9002 733.124 60.389 731.446C60.6043 730.604 60.5255 729.714 60.1655 728.922C59.8056 728.131 59.1862 727.487 58.41 727.096C56.593 726.402 54.651 727.665 53.182 728.935C51.713 730.205 50.021 731.66 48.094 731.387C49.0859 730.49 49.8283 729.351 50.2489 728.081C50.6695 726.812 50.754 725.455 50.494 724.143C50.4075 723.599 50.1752 723.089 49.822 722.666C48.822 721.588 46.986 722.046 45.783 722.902C41.943 725.602 40.872 730.818 40.85 735.508C40.459 733.817 40.791 732.052 40.776 730.339C40.761 728.626 40.296 726.647 38.826 725.739C37.9193 725.252 36.9005 725.013 35.872 725.045C34.144 724.979 32.224 725.156 31.042 726.419C29.565 727.985 29.964 730.614 31.234 732.327C32.504 734.04 34.446 735.141 36.234 736.327C37.6632 737.178 38.8824 738.34 39.801 739.727C39.9116 739.921 40.0008 740.127 40.067 740.34H50.856C53.2887 739.108 55.5441 737.552 57.561 735.717V735.722Z" fill="#EFEFEF"/>
<path d="M902.567 746.088H0V747.909H902.567V746.088Z" fill="#4A4A4A"/>
<path d="M858.51 50.524C858.51 50.524 764.289 44.839 775.39 110.861C775.39 110.861 773.152 122.532 783.76 127.825C783.76 127.825 783.928 122.935 793.428 124.602C796.81 125.163 800.246 125.328 803.667 125.094C808.281 124.79 812.672 122.996 816.177 119.98C816.177 119.98 842.664 109.036 852.959 65.753C852.959 65.753 860.579 56.309 860.277 53.88L844.377 60.672C844.377 60.672 849.815 72.142 845.496 81.672C845.496 81.672 844.981 61.082 841.926 61.53C841.311 61.62 833.668 65.502 833.668 65.502C833.668 65.502 843.012 85.476 835.962 100.002C835.962 100.002 838.636 75.384 830.747 66.946L819.557 73.481C819.557 73.481 830.479 94.116 823.071 110.957C823.071 110.957 824.971 85.13 817.196 75.07L807.058 82.981C807.058 82.981 817.319 103.313 811.064 117.281C811.064 117.281 810.247 87.224 804.864 84.953C804.864 84.953 795.99 92.786 794.636 95.986C794.636 95.986 801.663 110.757 797.299 118.545C797.299 118.545 794.625 98.515 792.431 98.403C792.431 98.403 783.591 111.674 782.673 120.783C782.673 120.783 783.054 107.254 790.293 97.15C790.293 97.15 781.744 98.616 776.753 104.15C776.753 104.15 778.129 94.773 792.475 93.945C792.475 93.945 799.782 83.874 801.729 83.27C801.729 83.27 787.473 82.07 778.823 85.911C778.823 85.911 786.432 77.06 804.348 81.088L814.363 72.908C814.363 72.908 795.586 70.345 787.619 73.177C787.619 73.177 796.784 65.344 817.06 71.051L827.96 64.538C827.96 64.538 811.947 61.091 802.413 62.3C802.413 62.3 812.484 56.873 831.16 62.759L838.993 59.259C838.993 59.259 827.266 56.954 823.83 56.585C820.394 56.216 820.216 55.276 820.216 55.276C827.646 54.0373 835.273 54.8858 842.249 57.727C842.249 57.727 858.79 51.565 858.51 50.524Z" fill="#E500A4"/>
<path d="M729.413 15.571C729.413 15.571 686.891 13.008 691.859 42.841C691.859 42.841 690.859 48.112 695.641 50.506C695.641 50.506 695.719 48.268 700.016 49.04C701.542 49.2969 703.093 49.3721 704.637 49.264C706.724 49.1259 708.709 48.3082 710.288 46.936C710.288 46.936 722.261 41.99 726.916 22.43C726.916 22.43 730.351 18.167 730.216 17.07L723.032 20.136C723.032 20.136 725.483 25.317 723.558 29.625C723.558 29.625 723.323 20.325 721.947 20.539C721.667 20.539 718.209 22.339 718.209 22.339C718.209 22.339 722.439 31.369 719.25 37.927C719.25 37.927 720.458 26.804 716.889 22.988L711.831 25.988C711.831 25.988 716.766 35.309 713.42 42.919C713.42 42.919 714.282 31.248 710.768 26.705L706.191 30.286C706.191 30.286 710.824 39.473 708.004 45.786C708.004 45.786 707.624 32.201 705.195 31.172C705.195 31.172 701.189 34.708 700.573 36.163C700.573 36.163 703.751 42.877 701.782 46.357C701.782 46.357 700.573 37.304 699.544 37.257C699.544 37.257 695.549 43.257 695.135 47.328C695.335 43.5303 696.523 39.8506 698.582 36.653C696.277 37.0897 694.149 38.1905 692.461 39.82C692.461 39.82 693.088 35.579 699.567 35.21C699.567 35.21 702.924 30.656 703.752 30.376C703.752 30.376 697.307 29.839 693.401 31.576C693.401 31.576 696.836 27.581 704.927 29.394L709.403 25.701C709.403 25.701 700.913 24.571 697.313 25.817C697.313 25.817 701.453 22.281 710.618 24.855L715.542 21.912C715.542 21.912 708.302 20.357 703.994 20.912C703.994 20.912 708.548 18.461 716.986 21.112L720.511 19.534C720.511 19.534 715.211 18.493 713.651 18.325C712.091 18.157 712.017 17.732 712.017 17.732C715.376 17.1732 718.825 17.5607 721.976 18.851C721.976 18.851 729.544 16.037 729.413 15.571Z" fill="#4A4A4A"/>
<path d="M73.6719 471.008C73.6719 471.008 31.15 468.445 36.118 498.278C36.118 498.278 35.118 503.549 39.9 505.943C39.9 505.943 39.978 503.705 44.275 504.477C45.8011 504.734 47.3522 504.809 48.8959 504.701C50.9833 504.563 52.968 503.745 54.5469 502.373C54.5469 502.373 66.52 497.427 71.175 477.867C71.175 477.867 74.61 473.604 74.475 472.507L67.291 475.573C67.291 475.573 69.742 480.754 67.817 485.062C67.817 485.062 67.5819 475.762 66.2059 475.976C65.9259 475.976 62.468 477.776 62.468 477.776C62.468 477.776 66.698 486.806 63.509 493.364C63.509 493.364 64.717 482.241 61.148 478.425L56.09 481.425C56.09 481.425 61.025 490.746 57.679 498.356C57.679 498.356 58.541 486.685 55.027 482.142L50.45 485.723C50.45 485.723 55.083 494.91 52.263 501.223C52.263 501.223 51.883 487.638 49.454 486.609C49.454 486.609 45.448 490.145 44.832 491.6C44.832 491.6 48.01 498.314 46.041 501.794C46.041 501.794 44.832 492.741 43.803 492.694C43.803 492.694 39.808 498.694 39.394 502.765C39.5941 498.967 40.7822 495.288 42.841 492.09C40.5356 492.527 38.4081 493.627 36.72 495.257C36.72 495.257 37.347 491.016 43.826 490.647C43.826 490.647 47.183 486.093 48.011 485.813C48.011 485.813 41.566 485.276 37.66 487.013C37.66 487.013 41.095 483.018 49.186 484.831L53.662 481.138C53.662 481.138 45.172 480.008 41.572 481.254C41.572 481.254 45.712 477.718 54.877 480.292L59.801 477.349C59.801 477.349 52.561 475.794 48.253 476.349C48.253 476.349 52.8069 473.898 61.2449 476.549L64.77 474.971C64.77 474.971 59.47 473.93 57.91 473.762C56.35 473.594 56.276 473.169 56.276 473.169C59.6351 472.61 63.0836 472.998 66.235 474.288C66.235 474.288 73.8029 471.474 73.6719 471.008Z" fill="#4A4A4A"/>
<path d="M414.67 509.36C419.08 509.36 421.6 506.93 423.04 504.44L419.38 502.67C418.54 504.32 416.74 505.58 414.67 505.58C411.04 505.58 408.4 502.79 408.4 499.01C408.4 495.23 411.04 492.44 414.67 492.44C416.74 492.44 418.54 493.73 419.38 495.35L423.04 493.55C421.63 491.06 419.08 488.66 414.67 488.66C408.67 488.66 404.02 492.86 404.02 499.01C404.02 505.16 408.67 509.36 414.67 509.36ZM429.296 509V488.99H425.486V509H429.296ZM439.794 509.36C444.594 509.36 447.474 505.88 447.474 501.74C447.474 497.63 444.594 494.15 439.794 494.15C435.024 494.15 432.144 497.63 432.144 501.74C432.144 505.88 435.024 509.36 439.794 509.36ZM439.794 505.97C437.424 505.97 436.104 504.02 436.104 501.74C436.104 499.49 437.424 497.54 439.794 497.54C442.164 497.54 443.514 499.49 443.514 501.74C443.514 504.02 442.164 505.97 439.794 505.97ZM455.16 509.36C456.75 509.36 457.77 508.94 458.34 508.43L457.53 505.55C457.32 505.76 456.78 505.97 456.21 505.97C455.37 505.97 454.89 505.28 454.89 504.38V497.84H457.83V494.51H454.89V490.55H451.05V494.51H448.65V497.84H451.05V505.4C451.05 507.98 452.49 509.36 455.16 509.36ZM474.057 509V498.71C474.057 495.89 472.527 494.15 469.347 494.15C466.977 494.15 465.177 495.29 464.247 496.4V488.99H460.437V509H464.247V499.25C464.907 498.38 466.077 497.54 467.547 497.54C469.197 497.54 470.247 498.17 470.247 500.18V509H474.057ZM479.729 492.95C480.989 492.95 482.009 491.93 482.009 490.67C482.009 489.41 480.989 488.42 479.729 488.42C478.499 488.42 477.449 489.41 477.449 490.67C477.449 491.93 478.499 492.95 479.729 492.95ZM481.649 509V494.51H477.839V509H481.649ZM490.107 509V497.84H493.047V494.51H490.107V493.73C490.107 492.38 490.857 491.69 491.907 491.69C492.597 491.69 493.107 491.9 493.497 492.29L494.937 490.04C494.007 489.05 492.537 488.69 491.157 488.69C488.247 488.69 486.267 490.64 486.267 493.73V494.51H483.867V497.84H486.267V509H490.107ZM494.732 514.67C495.212 514.79 496.172 514.88 496.622 514.88C499.112 514.82 501.032 514.1 502.112 511.37L508.922 494.51H504.812L501.032 504.59L497.252 494.51H493.172L499.052 509.21L498.512 510.44C498.152 511.22 497.492 511.49 496.502 511.49C496.142 511.49 495.632 511.4 495.302 511.25L494.732 514.67Z" fill="url(#paint1_linear)"/>
<circle cx="460.5" cy="373.5" r="92.5" fill="url(#paint2_linear)"/>
<g clip-path="url(#clip1)" filter="url(#filter0_d)">
<path d="M501.71 342.681C494.527 330.707 491.671 312.502 491.643 312.322C491.449 311.048 490.805 309.887 489.828 309.048C488.851 308.209 487.606 307.747 486.318 307.747H475.545C474.117 307.747 472.747 308.315 471.736 309.325C470.726 310.335 470.159 311.705 470.159 313.134C470.159 315.991 469.024 318.731 467.003 320.751C464.983 322.772 462.243 323.907 459.386 323.907C456.528 323.907 453.788 322.772 451.768 320.751C449.748 318.731 448.613 315.991 448.613 313.134C448.613 311.705 448.045 310.335 447.035 309.325C446.025 308.315 444.655 307.747 443.226 307.747H432.453C431.122 307.748 429.838 308.241 428.849 309.132C427.86 310.022 427.236 311.247 427.096 312.571C427.076 312.753 425.085 330.919 417.785 342.601C408.494 357.473 412.284 368.493 416.304 380.16C420.479 392.29 425.213 406.038 417.247 429.937C416.977 430.746 416.904 431.608 417.033 432.451C417.162 433.294 417.489 434.094 417.987 434.786C418.486 435.478 419.142 436.042 419.901 436.431C420.66 436.82 421.5 437.023 422.353 437.024H497.091C497.945 437.024 498.786 436.821 499.546 436.432C500.306 436.044 500.962 435.48 501.462 434.787C501.961 434.095 502.288 433.294 502.417 432.45C502.546 431.606 502.472 430.744 502.202 429.934C494.183 405.877 498.845 392.088 502.958 379.921C506.868 368.356 510.561 357.433 501.71 342.681Z" fill="url(#paint3_linear)"/>
<path d="M427.195 312.581L427.195 312.581C427.333 311.282 427.946 310.08 428.916 309.206C429.887 308.332 431.147 307.848 432.453 307.847H443.226C444.628 307.847 445.973 308.404 446.964 309.395C447.956 310.387 448.513 311.731 448.513 313.134C448.513 316.017 449.658 318.783 451.697 320.822C453.736 322.861 456.502 324.007 459.386 324.007C462.269 324.007 465.035 322.861 467.074 320.822C469.113 318.783 470.259 316.017 470.259 313.134C470.259 311.731 470.816 310.387 471.807 309.395C472.799 308.404 474.143 307.847 475.545 307.847H486.318C487.582 307.847 488.804 308.3 489.763 309.124C490.722 309.947 491.354 311.087 491.544 312.337C491.558 312.429 492.28 317.029 493.897 323.105C495.513 329.178 498.026 336.734 501.625 342.733C506.04 350.092 507.324 356.491 507.02 362.491C506.715 368.495 504.819 374.105 502.863 379.889L502.862 379.892C500.806 385.974 498.609 392.473 497.931 400.46C497.252 408.45 498.094 417.926 502.107 429.966C502.372 430.76 502.444 431.607 502.318 432.435C502.192 433.263 501.87 434.049 501.38 434.729C500.891 435.408 500.246 435.962 499.501 436.343C498.755 436.725 497.929 436.924 497.091 436.924H422.353C421.516 436.923 420.691 436.724 419.946 436.342C419.201 435.96 418.558 435.407 418.068 434.728C417.579 434.049 417.258 433.263 417.132 432.436C417.005 431.608 417.077 430.763 417.342 429.968C421.328 418.007 422.139 408.582 421.428 400.626C420.717 392.675 418.488 386.198 416.401 380.136L416.399 380.128L416.304 380.16L416.399 380.128C414.388 374.292 412.44 368.633 412.152 362.578C411.865 356.526 413.234 350.073 417.87 342.654C421.529 336.799 423.854 329.325 425.268 323.296C426.682 317.267 427.185 312.675 427.195 312.581Z" stroke="black" stroke-opacity="0.15" stroke-width="0.2"/>
<path d="M459.385 354.879C451.314 346.808 433.803 351.528 437.839 365.652C440.125 373.652 459.385 387.199 459.385 387.199C459.385 387.199 478.646 373.652 480.932 365.652C484.967 351.528 467.457 346.808 459.385 354.879Z" fill="white"/>
</g>
<path d="M541 443.001C541 446.561 539.944 450.041 537.966 453.001C535.988 455.961 533.177 458.268 529.888 459.63C526.599 460.992 522.979 461.349 519.488 460.654C515.996 459.959 512.789 458.245 510.272 455.728C507.754 453.21 506.04 450.003 505.346 446.511C504.651 443.019 505.008 439.4 506.37 436.111C507.733 432.822 510.04 430.011 513 428.033C515.96 426.055 519.441 425 523.001 425C525.364 425 527.705 425.466 529.889 426.37C532.073 427.275 534.057 428.601 535.728 430.272C537.4 431.944 538.726 433.928 539.63 436.112C540.535 438.296 541 440.637 541 443.001V443.001ZM520.92 452.528L534.272 439.176C534.38 439.068 534.466 438.94 534.524 438.799C534.583 438.658 534.613 438.507 534.613 438.355C534.613 438.202 534.583 438.051 534.524 437.91C534.466 437.769 534.38 437.641 534.272 437.533L532.629 435.902C532.522 435.794 532.394 435.709 532.253 435.65C532.112 435.592 531.961 435.562 531.809 435.562C531.657 435.562 531.506 435.592 531.365 435.65C531.224 435.709 531.096 435.794 530.989 435.902L520.098 446.793L515.014 441.696C514.795 441.479 514.5 441.357 514.192 441.357C513.884 441.357 513.589 441.479 513.371 441.696L511.728 443.348C511.511 443.567 511.389 443.862 511.389 444.17C511.389 444.478 511.511 444.773 511.728 444.991L519.277 452.538C519.385 452.646 519.513 452.732 519.654 452.79C519.795 452.849 519.946 452.879 520.099 452.879C520.251 452.879 520.403 452.849 520.543 452.79C520.684 452.732 520.812 452.646 520.92 452.538L520.92 452.528Z" fill="url(#paint4_linear)"/>
</g>
<defs>
<filter id="filter0_d" x="390.747" y="305.747" width="137.277" height="137.277" filterUnits="userSpaceOnUse" color-interpolation-filters="sRGB">
<feFlood flood-opacity="0" result="BackgroundImageFix"/>
<feColorMatrix in="SourceAlpha" type="matrix" values="0 0 0 0 0 0 0 0 0 0 0 0 0 0 0 0 0 0 127 0"/>
<feOffset dy="2"/>
<feGaussianBlur stdDeviation="2"/>
<feColorMatrix type="matrix" values="0 0 0 0 0 0 0 0 0 0 0 0 0 0 0 0 0 0 0.25 0"/>
<feBlend mode="normal" in2="BackgroundImageFix" result="effect1_dropShadow"/>
<feBlend mode="normal" in="SourceGraphic" in2="effect1_dropShadow" result="shape"/>
</filter>
<linearGradient id="paint0_linear" x1="209.355" y1="384.2" x2="209.355" y2="383.91" gradientUnits="userSpaceOnUse">
<stop stop-color="#808080" stop-opacity="0.251"/>
<stop offset="0.54" stop-color="#808080" stop-opacity="0.122"/>
<stop offset="1" stop-color="#808080" stop-opacity="0.102"/>
</linearGradient>
<linearGradient id="paint1_linear" x1="460" y1="508" x2="460" y2="481" gradientUnits="userSpaceOnUse">
<stop stop-color="#B71AB7"/>
<stop offset="1" stop-color="#DA0B9F"/>
</linearGradient>
<linearGradient id="paint2_linear" x1="388.704" y1="308.717" x2="550.961" y2="405.126" gradientUnits="userSpaceOnUse">
<stop stop-color="#D5D5D5"/>
<stop offset="1" stop-color="white"/>
</linearGradient>
<linearGradient id="paint3_linear" x1="459.589" y1="437.024" x2="459.589" y2="307.747" gradientUnits="userSpaceOnUse">
<stop stop-color="#B71AB7"/>
<stop offset="1" stop-color="#DA0B9F"/>
</linearGradient>
<linearGradient id="paint4_linear" x1="523" y1="461" x2="523" y2="425" gradientUnits="userSpaceOnUse">
<stop stop-color="#B71AB7"/>
<stop offset="1" stop-color="#DA0B9F"/>
</linearGradient>
<clipPath id="clip0">
<rect width="902.567" height="748.955" fill="white"/>
</clipPath>
<clipPath id="clip1">
<rect width="129.277" height="129.277" fill="white" transform="translate(394.747 307.747)"/>
</clipPath>
</defs>
</svg>
