<svg viewBox="0 0 90 75" fill="none" xmlns="http://www.w3.org/2000/svg">
<g filter="url(#filter0_d)">
<circle cx="37.5" cy="36.5" r="33.5" fill="url(#paint1_linear)"/>
</g>
<g clip-path="url(#clip0)" filter="url(#filter1_d)">
<path d="M52.4234 25.3387C49.8217 21.002 48.7873 14.4088 48.7773 14.3435C48.707 13.8824 48.4738 13.4618 48.1201 13.1578C47.7663 12.8539 47.3153 12.6868 46.8489 12.6867H42.9473C42.43 12.6867 41.9338 12.8923 41.5679 13.2581C41.2021 13.624 40.9965 14.1202 40.9965 14.6375C40.9965 15.6723 40.5855 16.6647 39.8538 17.3964C39.1221 18.1281 38.1297 18.5391 37.0949 18.5391C36.0602 18.5391 35.0678 18.1281 34.3361 17.3964C33.6044 16.6647 33.1933 15.6723 33.1933 14.6375C33.1933 14.1202 32.9878 13.624 32.6219 13.2581C32.2561 12.8923 31.7599 12.6867 31.2425 12.6867H27.3409C26.8589 12.687 26.394 12.8656 26.0359 13.1882C25.6777 13.5107 25.4515 13.9543 25.4008 14.4337C25.3938 14.4998 24.6724 21.0788 22.0289 25.3094C18.6637 30.6956 20.0364 34.6867 21.4924 38.9121C23.0043 43.3048 24.7188 48.284 21.8338 56.9392C21.7363 57.2323 21.7097 57.5444 21.7563 57.8497C21.803 58.1551 21.9215 58.445 22.102 58.6956C22.2826 58.9462 22.5201 59.1504 22.795 59.2913C23.0699 59.4322 23.3743 59.5058 23.6831 59.506H50.7506C51.0597 59.506 51.3644 59.4326 51.6396 59.2918C51.9147 59.1509 52.1525 58.9467 52.3332 58.6959C52.514 58.4451 52.6326 58.155 52.6792 57.8494C52.7258 57.5438 52.6991 57.2315 52.6014 56.9383C49.6971 48.2257 51.3855 43.2317 52.8752 38.8256C54.2913 34.6372 55.6288 30.6809 52.4234 25.3387Z" fill="url(#paint2_linear)"/>
<path d="M48.6785 14.3586L48.6785 14.3585C48.6118 13.9211 48.3905 13.522 48.0549 13.2337C47.7193 12.9453 47.2914 12.7868 46.8489 12.7867H42.9473C42.4565 12.7867 41.9857 12.9817 41.6386 13.3288C41.2915 13.6759 41.0965 14.1467 41.0965 14.6375C41.0965 15.6988 40.6749 16.7167 39.9245 17.4671C39.174 18.2176 38.1562 18.6391 37.0949 18.6391C36.0336 18.6391 35.0158 18.2176 34.2654 17.4671C33.5149 16.7167 33.0933 15.6988 33.0933 14.6375C33.0933 14.1467 32.8983 13.6759 32.5512 13.3288C32.2041 12.9817 31.7334 12.7867 31.2425 12.7867L27.341 12.7867L48.6785 14.3586ZM48.6785 14.3586C48.6838 14.3936 48.9456 16.062 49.5318 18.265C50.1177 20.4667 51.0296 23.2098 52.3376 25.3901C53.9305 28.0449 54.3921 30.3499 54.2825 32.5098C54.1726 34.674 53.4893 36.6971 52.7805 38.7935L52.7794 38.7966C52.035 40.9984 51.2372 43.3581 50.9909 46.2586C50.7444 49.1617 51.0505 52.602 52.5065 56.9699C52.5993 57.2481 52.6246 57.5444 52.5803 57.8343C52.5361 58.1243 52.4236 58.3995 52.2521 58.6374C52.0806 58.8754 51.8551 59.0691 51.594 59.2027C51.3329 59.3364 51.0438 59.406 50.7506 59.406H23.6832M48.6785 14.3586L23.6832 59.406M21.4924 38.9121L21.493 38.9139C23.0047 43.3062 24.7184 48.2852 21.8338 56.9392M21.4924 38.9121L31.2425 12.6867C31.7599 12.6867 32.2561 12.8923 32.6219 13.2581C32.9878 13.624 33.1933 14.1202 33.1933 14.6375C33.1933 15.6723 33.6044 16.6647 34.3361 17.3964C35.0678 18.1281 36.0602 18.5391 37.0949 18.5391C38.1297 18.5391 39.1221 18.1281 39.8538 17.3964C40.5855 16.6647 40.9965 15.6723 40.9965 14.6375C40.9965 14.1202 41.2021 13.624 41.5679 13.2581C41.9338 12.8923 42.43 12.6867 42.9473 12.6867H46.8489C47.3153 12.6868 47.7663 12.8539 48.1201 13.1578C48.4738 13.4618 48.707 13.8824 48.7773 14.3435C48.7873 14.4088 49.8217 21.002 52.4234 25.3387C55.6288 30.6809 54.2913 34.6372 52.8752 38.8256C51.3855 43.2317 49.6971 48.2257 52.6014 56.9383C52.6991 57.2315 52.7258 57.5438 52.6792 57.8494C52.6326 58.155 52.514 58.4451 52.3332 58.6959C52.1525 58.9467 51.9147 59.1509 51.6396 59.2918C51.3644 59.4326 51.0597 59.506 50.7506 59.506H23.6831M21.4924 38.9121C20.0364 34.6867 18.6637 30.6956 22.0289 25.3094M21.4924 38.9121L22.0289 25.3094M21.8338 56.9392C21.7363 57.2323 21.7097 57.5444 21.7563 57.8497C21.803 58.1551 21.9215 58.445 22.102 58.6956C22.2826 58.9462 22.5201 59.1504 22.795 59.2913M21.8338 56.9392L21.9287 56.9708C21.9287 56.9708 21.9287 56.9709 21.9287 56.9709M21.8338 56.9392L21.9287 56.9709M22.795 59.2913C23.0699 59.4322 23.3743 59.5058 23.6831 59.506M22.795 59.2913L22.8406 59.2023C23.1014 59.3359 23.3902 59.4058 23.6832 59.406M22.795 59.2913L22.8406 59.2023C22.5798 59.0686 22.3545 58.8749 22.1832 58.6371C22.0118 58.3994 21.8994 58.1243 21.8552 57.8346C21.811 57.545 21.8361 57.2489 21.9287 56.9709M23.6831 59.506L23.6832 59.406M23.6831 59.506V59.406H23.6832M23.6832 59.406L20.0526 32.5413C20.1563 34.7238 20.8581 36.7645 21.5869 38.8795L21.587 38.8796L21.5887 38.8846C22.344 41.0791 23.1535 43.4312 23.4115 46.3183C23.6698 49.2091 23.3751 52.6315 21.9287 56.9709M22.0289 25.3094C24.6724 21.0788 25.3938 14.4998 25.4008 14.4337L22.0289 25.3094Z" stroke="black" stroke-opacity="0.15" stroke-width="0.2"/>
<path d="M37.095 29.7563C34.1717 26.833 27.8302 28.5424 29.2918 33.6579C30.1197 36.5551 37.095 41.4611 37.095 41.4611C37.095 41.4611 44.0704 36.5551 44.8982 33.6579C46.3599 28.5424 40.0183 26.833 37.095 29.7563Z" fill="white"/>
</g>
<defs>
<filter id="filter0_d" x="0" y="0" width="75" height="75" filterUnits="userSpaceOnUse" color-interpolation-filters="sRGB">
<feFlood flood-opacity="0" result="BackgroundImageFix"/>
<feColorMatrix in="SourceAlpha" type="matrix" values="0 0 0 0 0 0 0 0 0 0 0 0 0 0 0 0 0 0 127 0"/>
<feOffset dy="1"/>
<feGaussianBlur stdDeviation="2"/>
<feColorMatrix type="matrix" values="0 0 0 0 0 0 0 0 0 0 0 0 0 0 0 0 0 0 0.2 0"/>
<feBlend mode="normal" in2="BackgroundImageFix" result="effect1_dropShadow"/>
<feBlend mode="normal" in="SourceGraphic" in2="effect1_dropShadow" result="shape"/>
</filter>
<filter id="filter1_d" x="9.68555" y="10.6867" width="54.8193" height="54.8193" filterUnits="userSpaceOnUse" color-interpolation-filters="sRGB">
<feFlood flood-opacity="0" result="BackgroundImageFix"/>
<feColorMatrix in="SourceAlpha" type="matrix" values="0 0 0 0 0 0 0 0 0 0 0 0 0 0 0 0 0 0 127 0"/>
<feOffset dy="2"/>
<feGaussianBlur stdDeviation="2"/>
<feColorMatrix type="matrix" values="0 0 0 0 0 0 0 0 0 0 0 0 0 0 0 0 0 0 0.25 0"/>
<feBlend mode="normal" in2="BackgroundImageFix" result="effect1_dropShadow"/>
<feBlend mode="normal" in="SourceGraphic" in2="effect1_dropShadow" result="shape"/>
</filter>
<linearGradient id="paint0_linear" x1="123.5" y1="50" x2="123.5" y2="23" gradientUnits="userSpaceOnUse">
<stop stop-color="#B71AB7"/>
<stop offset="1" stop-color="#DA0B9F"/>
</linearGradient>
<linearGradient id="paint1_linear" x1="11.4982" y1="13.0379" x2="70.2616" y2="47.9539" gradientUnits="userSpaceOnUse">
<stop stop-color="#D5D5D5"/>
<stop offset="1" stop-color="white"/>
</linearGradient>
<linearGradient id="paint2_linear" x1="37.1686" y1="59.506" x2="37.1686" y2="12.6867" gradientUnits="userSpaceOnUse">
<stop stop-color="#B71AB7"/>
<stop offset="1" stop-color="#DA0B9F"/>
</linearGradient>
<clipPath id="clip0">
<rect width="46.8193" height="46.8193" fill="white" transform="translate(13.6855 12.6867)"/>
</clipPath>
</defs>
</svg>
