<svg width="805" height="611" viewBox="0 0 805 611" fill="none" xmlns="http://www.w3.org/2000/svg">
<g clip-path="url(#clip0)">
<path d="M717.42 610.283C759.573 610.283 793.745 602.411 793.745 592.7C793.745 582.989 759.573 575.117 717.42 575.117C675.267 575.117 641.095 582.989 641.095 592.7C641.095 602.411 675.267 610.283 717.42 610.283Z" fill="#E6E6E6"/>
<path d="M716.42 143.137V166.137L728.42 196.137L747.42 162.137V136.137L716.42 143.137Z" fill="#A0616A"/>
<path d="M662.919 321.637L659.919 343.637C659.919 343.637 652.919 367.637 662.919 367.637C672.919 367.637 672.919 341.637 672.919 341.637L674.919 326.637L662.919 321.637Z" fill="#A0616A"/>
<path d="M783.919 318.637L780.919 340.637C780.919 340.637 773.919 364.637 783.919 364.637C793.919 364.637 793.919 338.637 793.919 338.637L795.919 323.637L783.919 318.637Z" fill="#A0616A"/>
<path d="M691.419 296.137L686.713 297.437C686.713 297.437 674.419 377.137 673.419 419.137C672.419 461.137 670.419 567.137 670.419 567.137H702.419L723.419 387.137L733.419 567.137H767.419C767.419 567.137 781.419 331.137 772.419 312.137C763.419 293.137 691.419 296.137 691.419 296.137Z" fill="#2F2E41"/>
<path d="M672.419 565.137L663.419 579.137C663.419 579.137 638.419 600.137 660.419 599.137C682.419 598.137 691.419 588.137 691.419 588.137V591.137L703.419 587.137L701.419 565.137H672.419Z" fill="#2F2E41"/>
<path d="M764.419 565.137L773.419 579.137C773.419 579.137 798.419 600.137 776.419 599.137C754.419 598.137 745.419 588.137 745.419 588.137V591.137L733.419 587.137L735.419 565.137H764.419Z" fill="#2F2E41"/>
<path d="M728.92 148.636C741.07 148.636 750.92 138.786 750.92 126.636C750.92 114.486 741.07 104.636 728.92 104.636C716.77 104.636 706.92 114.486 706.92 126.636C706.92 138.786 716.77 148.636 728.92 148.636Z" fill="#A0616A"/>
<path d="M727.42 181.137L716.42 158.613L711.42 170.137L709.42 269.137L755.42 166.137L747.42 157.29L727.42 181.137Z" fill="#575A89"/>
<path d="M788.419 186.137L751.955 162.307C751.955 162.307 749.419 185.137 726.419 183.137C703.419 181.137 714.169 163.795 714.169 163.795L677.419 184.137L691.419 262.137L685.419 307.137C685.419 307.137 739.419 301.137 751.419 310.137C758.427 315.477 766.693 318.921 775.419 320.137L773.419 243.137L788.419 186.137Z" fill="#D1D1D1"/>
<path d="M777.419 190.137L784.337 183.469L789.419 187.137C789.419 187.137 794.419 193.137 798.419 211.137C802.419 229.137 800.419 309.137 800.419 309.137L778.419 306.137L779.419 273.137L770.419 229.137L777.419 190.137Z" fill="#D1D1D1"/>
<path d="M684.419 183.137L680.641 182.353L677.419 184.137C677.419 184.137 668.419 196.137 668.419 207.137C668.419 218.137 659.419 312.137 659.419 312.137L679.419 321.137L693.419 250.137L684.419 183.137Z" fill="#D1D1D1"/>
<path d="M803.419 311.137C803.419 311.137 783.419 299.137 776.419 307.137C769.419 315.137 780.419 323.137 780.419 323.137C780.419 323.137 811.419 335.137 803.419 311.137Z" fill="#575A89"/>
<path d="M681.419 317.137C681.419 317.137 661.419 305.137 654.419 313.137C647.419 321.137 658.419 329.137 658.419 329.137C658.419 329.137 689.419 341.137 681.419 317.137Z" fill="#575A89"/>
<path d="M748.186 110.506C748.186 110.506 753.94 99.506 741.281 98.506C741.281 98.506 729.773 91.506 720.566 99.506C720.566 99.506 712.51 97.506 710.208 103.506C710.208 103.506 709.057 100.506 712.508 98.506C712.508 98.506 704.452 96.506 704.452 106.506C704.452 106.506 700.999 116.506 704.452 125.506C707.905 134.506 709.052 135.506 709.052 135.506C709.052 135.506 703.378 116.637 717.189 115.637C731 114.637 746.455 106.006 747.606 117.006C748.757 128.006 751.059 131.006 751.059 131.006C751.059 131.006 761.421 115.006 748.186 110.506Z" fill="#2F2E41"/>
<path d="M268.29 524.304H268.153C263.04 524.304 257.864 524.152 252.771 523.851L252.847 522.565C257.916 522.865 263.066 523.016 268.154 523.016H268.291L268.29 524.304ZM283.814 523.834L283.737 522.548C288.86 522.241 294.037 521.774 299.124 521.16L299.279 522.439C294.166 523.057 288.963 523.526 283.819 523.835L283.814 523.834ZM237.304 522.472C232.184 521.86 227.017 521.084 221.948 520.165L222.178 518.896C227.221 519.81 232.362 520.583 237.457 521.196L237.304 522.472ZM314.632 520.114L314.4 518.845C319.446 517.925 324.529 516.836 329.507 515.611L329.815 516.862C324.815 518.093 319.703 519.187 314.631 520.113L314.632 520.114ZM206.76 516.926C201.753 515.7 196.718 514.303 191.796 512.775L192.179 511.544C197.079 513.065 202.086 514.454 207.068 515.675L206.76 516.926ZM344.775 512.692L344.391 511.461C349.281 509.937 354.191 508.24 358.991 506.416L359.449 507.622C354.627 509.456 349.689 511.163 344.775 512.695V512.692ZM177.084 507.711C172.262 505.885 167.427 503.883 162.713 501.762L163.242 500.586C167.932 502.697 172.742 504.686 177.542 506.505L177.084 507.711ZM373.772 501.679L373.242 500.503C377.91 498.403 382.576 496.121 387.11 493.736L387.71 494.876C383.153 497.277 378.464 499.566 373.772 501.682V501.679ZM148.734 494.95C144.162 492.55 139.608 489.978 135.197 487.307L135.864 486.207C140.253 488.864 144.784 491.423 149.333 493.813L148.734 494.95ZM401.219 487.245L400.552 486.145C404.936 483.489 409.297 480.664 413.511 477.75L414.244 478.81C410.005 481.736 405.619 484.575 401.219 487.245ZM122.155 478.865C117.909 475.931 113.699 472.83 109.642 469.651L110.442 468.636C114.478 471.801 118.667 474.885 122.892 477.805L122.155 478.865ZM426.739 469.599L425.939 468.584C429.985 465.409 433.976 462.084 437.802 458.684L438.658 459.648C434.812 463.058 430.801 466.404 426.735 469.595L426.739 469.599ZM97.709 459.699C93.848 456.279 90.042 452.699 86.397 449.055L87.308 448.144C90.935 451.768 94.722 455.332 98.563 458.735L97.709 459.699ZM449.967 448.999L449.056 448.088C452.688 444.456 456.256 440.671 459.656 436.837L460.62 437.693C457.204 441.546 453.62 445.35 449.97 448.999H449.967ZM75.747 437.751C72.323 433.892 68.975 429.882 65.796 425.833L66.809 425.033C69.973 429.061 73.309 433.051 76.709 436.891L75.747 437.751ZM470.568 425.776L469.553 424.976C472.728 420.929 475.814 416.741 478.727 412.531L479.787 413.264C476.861 417.5 473.759 421.709 470.568 425.776ZM56.576 413.352C53.641 409.112 50.799 404.732 48.132 400.334L49.232 399.664C51.887 404.042 54.714 408.4 57.632 412.619L56.576 413.352ZM488.24 400.226L487.14 399.559C489.802 395.166 492.363 390.636 494.752 386.094L495.892 386.694C493.489 391.256 490.919 395.809 488.24 400.226ZM40.489 386.832C38.089 382.275 35.798 377.586 33.68 372.897L34.854 372.366C36.962 377.032 39.241 381.697 41.629 386.23L40.489 386.832ZM502.708 372.717L501.532 372.188C503.648 367.488 505.642 362.682 507.458 357.888L508.664 358.346C506.837 363.16 504.833 367.995 502.707 372.714L502.708 372.717ZM27.729 358.581C25.895 353.761 24.186 348.824 22.65 343.906L23.88 343.521C25.409 348.414 27.109 353.327 28.933 358.121L27.729 358.581ZM513.739 343.641L512.508 343.258C514.032 338.358 515.425 333.351 516.647 328.372L517.898 328.679C516.669 333.683 515.27 338.717 513.739 343.64V343.641ZM18.474 328.948C17.24 323.948 16.144 318.841 15.215 313.765L16.483 313.533C17.408 318.583 18.499 323.665 19.726 328.638L18.474 328.948ZM521.142 313.492L519.873 313.26C520.789 308.217 521.565 303.078 522.173 297.984L523.452 298.138C522.842 303.256 522.063 308.426 521.142 313.491V313.492ZM12.882 298.414C12.263 293.302 11.791 288.1 11.482 282.95L12.768 282.872C13.078 287.995 13.548 293.172 14.168 298.258L12.882 298.414ZM524.844 282.672L523.558 282.596C523.858 277.482 524.016 272.287 524.016 267.152V266.607H525.305V267.152C525.305 272.312 525.15 277.533 524.844 282.672ZM12.289 267.426H11V267.153C11 262.082 11.149 256.953 11.444 251.907L12.73 251.983C12.437 257.004 12.288 262.108 12.288 267.154L12.289 267.426ZM523.524 251.163C523.208 246.034 522.732 240.857 522.112 235.778L523.391 235.622C524.015 240.727 524.491 245.929 524.811 251.084L523.524 251.163ZM14.095 236.593L12.815 236.441C13.425 231.321 14.198 226.154 15.115 221.084L16.384 221.313C15.471 226.358 14.701 231.499 14.095 236.593ZM519.773 220.506C518.84 215.449 517.744 210.367 516.513 205.406L517.764 205.096C519.001 210.086 520.103 215.196 521.041 220.275L519.773 220.506ZM19.595 206.197L18.343 205.891C19.566 200.891 20.96 195.851 22.487 190.925L23.718 191.306C22.199 196.206 20.812 201.217 19.596 206.197H19.595ZM512.343 190.526C510.81 185.632 509.104 180.721 507.275 175.926L508.475 175.467C510.314 180.282 512.029 185.218 513.575 190.137L512.343 190.526ZM28.75 176.667L27.544 176.211C29.369 171.387 31.368 166.551 33.486 161.836L34.662 162.365C32.554 167.056 30.565 171.868 28.75 176.667ZM501.34 161.691C499.228 157.027 496.94 152.365 494.549 147.834L495.689 147.234C498.095 151.787 500.389 156.473 502.513 161.161L501.34 161.691ZM41.429 148.454L40.287 147.854C42.679 143.293 45.248 138.737 47.923 134.313L49.023 134.98C46.366 139.383 43.81 143.916 41.429 148.454ZM486.929 134.409C484.269 130.037 481.437 125.681 478.512 121.464L479.572 120.729C482.512 124.968 485.357 129.345 488.03 133.74L486.929 134.409ZM57.419 121.994L56.358 121.261C59.284 117.022 62.382 112.811 65.565 108.744L66.58 109.538C63.419 113.586 60.333 117.776 57.419 121.994ZM469.329 109.044C466.153 105.012 462.817 101.026 459.414 97.196L460.378 96.34C463.798 100.187 467.15 104.193 470.341 108.247L469.329 109.044ZM76.475 97.662L75.51 96.807C78.926 92.947 82.51 89.139 86.147 85.491L87.06 86.401C83.435 90.032 79.874 93.82 76.475 97.662ZM448.809 85.962C445.167 82.334 441.377 78.774 437.542 75.383L438.395 74.418C442.249 77.826 446.06 81.403 449.718 85.05L448.809 85.962ZM98.298 75.796L97.442 74.832C101.289 71.414 105.297 68.064 109.354 64.874L110.154 65.887C106.119 69.061 102.127 72.395 98.298 75.796ZM425.659 65.496C421.62 62.336 417.428 59.256 413.198 56.341L413.931 55.28C418.181 58.209 422.394 61.305 426.452 64.48L425.659 65.496ZM122.574 56.708L121.84 55.648C126.076 52.713 130.454 49.869 134.856 47.197L135.525 48.297C131.146 50.956 126.789 53.786 122.574 56.707V56.708ZM400.207 47.953C395.807 45.297 391.273 42.744 386.731 40.363L387.331 39.221C391.897 41.614 396.454 44.18 400.876 46.849L400.207 47.953ZM148.954 40.689L148.354 39.549C152.909 37.149 157.596 34.849 162.285 32.732L162.816 33.906C158.15 36.016 153.487 38.298 148.956 40.689H148.954ZM372.819 33.605C368.128 31.505 363.319 29.514 358.514 27.705L358.97 26.499C363.796 28.321 368.632 30.317 373.347 32.433L372.819 33.605ZM177.059 27.981L176.6 26.781C181.422 24.944 186.359 23.233 191.274 21.695L191.659 22.925C186.765 24.45 181.853 26.153 177.056 27.981H177.059ZM343.87 22.681C338.97 21.165 333.958 19.781 328.977 18.566L329.283 17.314C334.283 18.534 339.324 19.926 344.251 21.45L343.87 22.681ZM206.537 18.761L206.227 17.51C211.233 16.272 216.341 15.173 221.408 14.243L221.641 15.511C216.6 16.436 211.518 17.53 206.541 18.762L206.537 18.761ZM313.863 15.361C308.825 14.452 303.684 13.684 298.582 13.08L298.733 11.8C303.861 12.407 309.028 13.178 314.092 14.092L313.863 15.361ZM236.914 13.178L236.758 11.898C241.867 11.276 247.069 10.798 252.221 10.486L252.299 11.772C247.173 12.085 241.999 12.557 236.914 13.172V13.178ZM283.189 11.726C278.211 11.438 273.153 11.292 268.153 11.292H267.743V10.003H268.153C273.177 10.003 278.262 10.15 283.263 10.44L283.189 11.726Z" fill="#3F3B56"/>
<path d="M527.609 430.255H374.796V544.865H527.609V430.255Z" fill="#E500A4"/>
<path d="M508.507 460.818H393.897V468.459H508.507V460.818Z" fill="white"/>
<path d="M508.507 483.74H393.897V491.381H508.507V483.74Z" fill="white"/>
<path d="M508.507 506.662H393.897V514.303H508.507V506.662Z" fill="white"/>
<path d="M114.739 0H8V80.054H114.739V0Z" fill="#E6E6E6"/>
<path d="M101.396 21.348H21.342V26.685H101.396V21.348Z" fill="white"/>
<path d="M101.396 37.358H21.342V42.695H101.396V37.358Z" fill="white"/>
<path d="M101.396 53.369H21.342V58.706H101.396V53.369Z" fill="white"/>
<path d="M160.103 41.361H53.364V121.415H160.103V41.361Z" fill="#E500A4"/>
<path d="M146.76 62.709H66.7061V68.046H146.76V62.709Z" fill="white"/>
<path d="M146.76 78.72H66.7061V84.057H146.76V78.72Z" fill="white"/>
<path d="M146.76 94.73H66.7061V100.067H146.76V94.73Z" fill="white"/>
<path d="M414 376H123V158H414V376ZM126 161V373H411V161H126Z" fill="#E6E6E6"/>
<path d="M268.409 322.818C299.011 322.818 323.818 298.011 323.818 267.409C323.818 236.807 299.011 212 268.409 212C237.807 212 213 236.807 213 267.409C213 298.011 237.807 322.818 268.409 322.818Z" fill="#E500A4"/>
<path d="M291.418 262.756H272.579V243.917C272.579 242.741 272.112 241.614 271.281 240.782C270.449 239.951 269.322 239.484 268.146 239.484C266.97 239.484 265.843 239.951 265.011 240.782C264.18 241.614 263.713 242.741 263.713 243.917V262.756H244.874C243.698 262.756 242.571 263.223 241.739 264.054C240.908 264.886 240.441 266.013 240.441 267.189C240.441 268.365 240.908 269.492 241.739 270.324C242.571 271.155 243.698 271.622 244.874 271.622H263.713V290.461C263.713 291.637 264.18 292.764 265.011 293.596C265.843 294.427 266.97 294.894 268.146 294.894C269.322 294.894 270.449 294.427 271.281 293.596C272.112 292.764 272.579 291.637 272.579 290.461V271.622H291.418C292.594 271.622 293.721 271.155 294.553 270.324C295.384 269.492 295.851 268.365 295.851 267.189C295.851 266.013 295.384 264.886 294.553 264.054C293.721 263.223 292.594 262.756 291.418 262.756Z" fill="white"/>
<path d="M106.739 411H0V491.054H106.739V411Z" fill="#E6E6E6"/>
<path d="M93.396 432.348H13.342V437.685H93.396V432.348Z" fill="white"/>
<path d="M93.396 448.358H13.342V453.695H93.396V448.358Z" fill="white"/>
<path d="M93.396 464.369H13.342V469.706H93.396V464.369Z" fill="white"/>
</g>
<defs>
<clipPath id="clip0">
<rect width="804.739" height="610.284" fill="white"/>
</clipPath>
</defs>
</svg>
